<?xml version="1.0" standalone="no"?>
<!DOCTYPE svg PUBLIC "-//W3C//DTD SVG 20010904//EN"
 "http://www.w3.org/TR/2001/REC-SVG-20010904/DTD/svg10.dtd">
<svg version="1.0" xmlns="http://www.w3.org/2000/svg"
 width="784.000000pt" height="858.000000pt" viewBox="0 0 784.000000 858.000000"
 preserveAspectRatio="xMidYMid meet">

<g transform="translate(0.000000,858.000000) scale(0.100000,-0.100000)"
fill="#000000" stroke="none">
<path d="M3603 7469 c-58 -17 -138 -135 -162 -240 -26 -113 -1 -212 64 -250
20 -12 33 -25 28 -29 -11 -10 -262 -44 -269 -37 -3 3 6 30 20 60 55 111 56
280 2 359 -43 65 -144 88 -216 50 -44 -24 -99 -126 -109 -203 -15 -116 28
-242 93 -273 40 -19 53 -34 34 -40 -7 -2 -78 -25 -158 -50 -80 -25 -150 -46
-156 -46 -14 0 -18 20 -44 223 -28 217 -30 202 36 235 l55 28 -27 27 c-15 15
-34 27 -44 27 -18 0 -210 -91 -287 -137 -41 -24 -43 -27 -28 -43 9 -10 29 -24
45 -30 24 -10 33 -9 52 4 47 33 52 26 82 -122 36 -184 45 -212 73 -223 13 -5
23 -11 23 -13 0 -7 -288 -146 -301 -146 -8 0 -8 8 -3 23 5 12 8 60 8 107 0 70
-5 97 -28 151 -53 128 -126 183 -211 160 -102 -28 -139 -81 -139 -201 1 -157
100 -310 202 -310 19 0 32 -5 32 -12 -1 -7 -38 -39 -84 -71 -46 -32 -111 -80
-145 -108 -33 -27 -69 -49 -79 -49 -19 0 -82 114 -82 148 0 9 21 41 47 71 l47
54 -23 18 c-30 25 -34 24 -74 -11 -19 -16 -39 -30 -45 -30 -10 0 -52 89 -52
112 0 7 28 40 61 74 l62 63 -34 20 c-19 12 -38 21 -43 21 -6 0 -55 -45 -109
-99 l-100 -100 30 -38 c17 -21 61 -90 98 -153 110 -186 113 -190 140 -190 14
0 25 -4 25 -9 0 -5 -32 -40 -71 -78 -39 -37 -110 -113 -158 -168 -47 -55 -90
-103 -96 -107 -5 -4 -16 17 -26 51 -8 33 -30 81 -48 109 -37 58 -123 142 -171
167 -95 49 -242 -58 -227 -167 7 -52 57 -155 100 -204 20 -22 63 -55 97 -73
55 -29 68 -33 111 -27 34 5 49 3 49 -5 0 -17 -102 -180 -117 -186 -19 -7 -46
16 -202 169 l-143 141 -34 -18 c-18 -10 -41 -26 -50 -37 -17 -17 -16 -20 12
-49 28 -30 195 -171 283 -239 30 -23 53 -33 73 -32 33 3 38 22 -47 -166 -54
-119 -75 -144 -75 -88 0 56 -37 158 -77 210 -45 60 -126 106 -184 106 -119 0
-211 -104 -213 -238 l-1 -63 179 -96 178 -96 42 21 c31 17 42 18 44 8 3 -15
-65 -247 -77 -259 -4 -4 -18 9 -32 30 -13 21 -46 54 -74 75 -69 53 -298 169
-313 159 -15 -9 -62 -72 -62 -82 0 -4 73 -43 163 -87 186 -92 240 -131 235
-171 -3 -24 -6 -26 -53 -24 -40 1 -76 15 -181 68 -111 56 -135 65 -151 55 -26
-17 -63 -71 -56 -83 11 -18 228 -116 292 -133 75 -19 118 -13 155 21 30 27 46
32 46 13 0 -13 -26 -228 -36 -297 -5 -32 -7 -33 -42 -27 -20 3 -112 29 -203
58 l-166 53 -6 64 c-4 35 -9 66 -11 68 -12 12 -77 -31 -83 -55 -7 -27 4 -329
13 -343 6 -10 53 7 76 28 12 11 18 31 18 60 0 23 3 43 8 43 4 0 39 -9 77 -19
39 -11 115 -29 170 -41 89 -19 101 -19 111 -6 28 39 34 16 34 -125 l0 -141
-23 16 c-69 51 -81 56 -100 43 -10 -7 -37 -45 -60 -86 -52 -92 -82 -116 -131
-107 -43 8 -106 60 -106 88 0 18 5 19 63 13 61 -7 65 -6 85 20 12 15 22 36 22
47 0 45 -166 72 -208 35 -31 -28 -62 -102 -62 -145 0 -49 55 -115 126 -154 73
-38 95 -41 144 -15 36 18 52 37 95 112 28 50 59 91 67 93 36 7 34 -69 -2 -152
-16 -36 -18 -50 -9 -73 l10 -28 30 35 c16 19 34 50 41 68 7 17 17 32 23 32 9
0 55 -236 55 -284 0 -26 -24 -5 -40 34 -14 35 -30 38 -55 10 -16 -18 -16 -22
-1 -66 25 -74 22 -84 -23 -84 -38 0 -39 1 -67 68 -36 86 -38 88 -69 68 -25
-16 -26 -21 -19 -72 l6 -54 -64 0 -65 0 -27 80 c-16 44 -31 82 -35 85 -12 7
-71 -34 -71 -49 0 -21 48 -153 76 -208 20 -40 29 -48 52 -48 54 0 374 30 383
36 5 3 16 19 25 35 8 17 20 29 25 27 5 -2 29 -62 54 -134 277 -828 937 -1486
1770 -1762 279 -93 499 -131 801 -139 471 -12 881 77 1299 282 562 277 1003
718 1279 1280 118 239 195 469 240 715 21 118 37 152 44 95 4 -31 34 -33 63
-4 18 18 20 28 15 71 -6 41 -4 49 8 46 8 -2 74 -66 147 -143 73 -77 139 -144
146 -148 7 -4 31 -3 53 3 45 12 46 13 55 138 7 98 -2 182 -20 182 -7 0 -27
-10 -46 -23 -31 -21 -34 -28 -39 -82 l-5 -59 -83 74 c-141 128 -215 190 -225
190 -5 0 -21 -9 -35 -21 l-27 -21 -3 118 c-1 65 0 124 3 132 9 23 22 4 29 -43
9 -54 19 -62 53 -40 25 16 25 19 18 87 l-6 70 33 -7 c46 -10 51 -17 68 -98 14
-67 17 -72 39 -69 43 4 54 22 48 74 -7 55 -7 55 72 36 57 -13 54 -7 70 -122 6
-37 12 -70 14 -73 10 -9 75 26 81 44 6 20 -17 170 -36 234 l-10 36 -200 25
-200 24 -36 -29 -37 -29 -6 29 c-4 15 -7 56 -8 90 -1 55 1 61 18 56 11 -3 21
2 25 13 14 38 92 133 109 134 9 0 17 -4 17 -9 0 -18 94 -113 132 -132 33 -17
45 -18 73 -9 41 14 113 83 122 118 9 36 -12 107 -50 171 -51 85 -49 85 -270
78 l-191 -5 -23 -28 c-16 -21 -23 -24 -27 -14 -23 71 -56 206 -54 219 3 13 6
13 24 -5 12 -12 23 -27 26 -34 3 -10 9 -10 25 -2 32 18 33 35 6 96 -14 31 -24
58 -22 61 3 2 23 7 44 10 l40 6 39 -75 c38 -73 39 -74 62 -60 32 22 36 39 18
85 -9 22 -14 42 -11 46 3 3 34 7 69 10 l63 4 29 -65 c45 -103 47 -104 86 -69
l34 30 -52 104 c-29 57 -60 113 -70 125 l-17 21 -175 -32 c-238 -43 -227 -39
-241 -80 -7 -19 -18 -35 -24 -35 -7 0 -29 39 -49 88 -21 48 -60 129 -87 181
-27 52 -49 98 -49 102 0 5 32 18 71 30 64 19 73 20 80 6 16 -27 134 -116 190
-142 30 -14 68 -25 86 -25 63 0 141 99 130 167 -3 19 -22 55 -41 81 -42 57
-131 128 -154 124 -9 -2 -89 -32 -177 -67 -88 -34 -168 -65 -178 -69 -11 -3
-21 -15 -24 -25 -7 -29 -30 -15 -60 37 -32 54 -123 179 -199 273 -64 78 -67
94 -21 85 41 -8 136 17 200 52 66 35 141 104 157 142 30 73 -18 177 -98 212
-41 18 -53 20 -105 10 -118 -22 -221 -89 -273 -179 -21 -35 -25 -50 -19 -83 5
-27 3 -40 -5 -40 -14 0 -198 161 -199 175 -1 6 22 16 51 23 71 16 78 26 46 59
-22 22 -35 26 -73 25 -100 -4 -112 40 -33 124 60 64 156 115 228 122 44 4 50
2 50 -14 0 -11 -11 -36 -25 -56 -29 -43 -31 -65 -9 -96 22 -32 37 -28 88 29
56 62 59 95 18 160 -56 87 -100 106 -187 83 -122 -31 -234 -115 -280 -208 -22
-46 -25 -59 -16 -95 8 -39 8 -41 -11 -35 -31 10 -176 108 -177 120 -1 9 141
152 272 272 31 29 57 59 57 66 0 7 -14 32 -30 55 -21 29 -35 39 -44 34 -20
-11 -186 -193 -257 -282 -43 -52 -58 -79 -54 -92 5 -15 3 -18 -12 -13 -46 16
-263 129 -263 138 0 15 103 146 114 146 6 0 43 -9 81 -20 38 -11 71 -20 71
-20 1 0 5 11 8 24 9 36 -1 53 -45 70 -49 20 -49 38 -3 91 l35 40 78 -28 c94
-33 97 -33 105 -1 12 45 -2 61 -77 92 -68 28 -171 62 -189 62 -4 0 -17 -19
-29 -42 -12 -24 -66 -110 -121 -192 -90 -136 -97 -150 -83 -166 18 -20 20 -40
4 -40 -22 0 -129 43 -129 51 0 5 34 111 76 236 85 259 87 230 -19 284 -35 18
-66 28 -77 24 -24 -8 -183 -177 -280 -299 -65 -81 -70 -90 -56 -105 19 -21 21
-41 5 -41 -28 0 -145 24 -153 31 -5 5 3 13 18 19 l27 10 -56 72 c-31 39 -55
77 -53 85 2 8 28 24 59 37 72 29 116 60 134 96 21 40 19 58 -11 119 -45 90
-105 109 -240 75 -53 -14 -70 -23 -84 -46 -20 -33 -59 -166 -89 -301 -19 -87
-19 -88 0 -100 10 -6 19 -17 19 -24 0 -10 -31 -13 -125 -13 -85 0 -125 4 -125
11 0 6 11 25 26 41 14 17 36 53 50 80 26 52 24 67 -15 102 -20 18 -26 18 -91
7 -38 -7 -72 -17 -75 -22 -11 -17 16 -50 46 -56 35 -7 36 -19 6 -64 -19 -28
-29 -34 -57 -34 -33 0 -35 2 -44 43 -13 62 6 152 51 242 34 67 41 75 69 78 30
3 31 2 37 -45 4 -35 12 -53 32 -71 42 -36 68 -26 77 28 10 57 -6 114 -39 139
-22 18 -115 53 -132 50 -3 0 -20 -5 -38 -10z m657 -144 c25 -30 -37 -87 -130
-120 -24 -8 -45 -14 -47 -11 -6 5 50 130 62 138 19 14 102 9 115 -7z m-1069
-47 c9 -21 14 -72 14 -138 0 -85 -4 -113 -20 -145 -21 -43 -53 -56 -74 -31
-23 27 -35 131 -23 195 24 134 73 190 103 119z m1533 -125 c-8 -27 -19 -65
-25 -87 l-10 -38 -47 7 c-26 4 -51 9 -56 12 -8 5 132 153 145 153 4 0 1 -21
-7 -47z m-584 -167 l55 -58 -65 6 c-36 4 -81 9 -102 12 l-36 5 25 76 26 76 21
-29 c11 -16 45 -55 76 -88z m-1879 -108 c54 -106 70 -238 33 -268 -55 -46
-142 133 -132 273 7 99 48 97 99 -5z m2336 71 l64 -11 -7 -57 c-3 -31 -7 -57
-8 -58 -2 -2 -210 59 -215 64 -10 8 64 73 83 73 10 0 48 -5 83 -11z m-461
-173 c310 -46 549 -120 824 -257 657 -328 1141 -907 1355 -1621 30 -101 68
-283 86 -418 17 -124 17 -516 0 -640 -83 -608 -335 -1122 -756 -1546 -361
-363 -835 -619 -1332 -718 -204 -42 -299 -50 -533 -50 -443 0 -789 80 -1180
275 -510 255 -916 658 -1174 1169 -140 277 -223 545 -267 870 -17 124 -17 516
0 640 44 324 122 578 262 860 374 750 1083 1278 1909 1420 64 11 159 25 211
30 127 12 471 4 595 -14z m2028 -466 c33 -12 33 -21 -1 -61 -66 -78 -242 -156
-292 -130 -29 16 -26 34 10 76 42 48 110 86 189 107 36 9 66 17 67 17 1 1 13
-3 27 -9z m-4875 -194 c40 -21 135 -127 160 -180 49 -100 3 -138 -85 -68 -76
60 -149 199 -130 247 7 19 19 19 55 1z m5338 -498 c53 -59 50 -98 -9 -98 -34
0 -115 39 -142 69 -21 23 -20 24 49 40 63 14 80 12 102 -11z m-5691 -197 c70
-32 116 -105 139 -219 10 -47 -2 -42 -145 58 -109 77 -120 87 -115 110 6 27
48 70 68 70 7 0 30 -9 53 -19z m5723 -677 c2 -2 -7 -18 -21 -36 -14 -18 -39
-58 -56 -88 -18 -30 -32 -53 -33 -50 0 3 -9 46 -18 96 l-17 91 71 -5 c38 -2
72 -6 74 -8z m219 -14 c26 0 36 -7 52 -32 24 -39 26 -96 5 -104 -24 -9 -97 40
-133 89 -17 25 -32 48 -32 52 0 4 17 5 38 1 20 -3 52 -6 70 -6z"/>
<path d="M4062 6515 c-78 -59 -293 -258 -869 -809 l-72 -68 -103 59 c-171 99
-234 115 -339 89 -146 -38 -357 -203 -632 -496 -199 -212 -288 -357 -295 -482
-5 -84 11 -133 87 -268 l59 -104 -36 -42 c-20 -23 -124 -133 -229 -244 -229
-240 -257 -278 -250 -337 23 -213 567 -885 1147 -1418 448 -411 740 -618 891
-633 41 -4 56 0 89 22 52 34 157 127 367 324 320 299 311 293 491 354 396 134
659 402 793 809 22 67 53 141 70 165 17 25 110 129 208 232 342 360 559 600
671 739 73 90 76 115 27 218 -47 96 -194 312 -329 481 -373 467 -782 872
-1193 1181 -215 162 -405 273 -466 273 -16 0 -51 -18 -87 -45z m157 -305 c66
-11 134 -41 211 -93 169 -114 893 -822 1132 -1107 102 -122 231 -315 258 -388
41 -110 40 -111 -437 -606 -95 -99 -174 -178 -176 -175 -2 2 -9 31 -16 64 -31
147 -141 387 -230 506 -183 241 -483 421 -811 485 -137 26 -390 25 -520 -4
-251 -54 -417 -147 -592 -330 -231 -242 -347 -524 -373 -908 -16 -243 49 -499
175 -684 175 -258 439 -439 760 -522 63 -16 121 -31 129 -34 23 -7 -267 -268
-336 -301 -30 -15 -34 -14 -95 14 -125 60 -395 284 -702 583 -408 399 -772
859 -826 1047 -12 39 -11 44 19 87 17 26 83 108 147 182 l117 135 17 -28 c10
-15 43 -73 75 -128 66 -113 112 -165 147 -165 55 0 128 77 128 135 0 46 -54
164 -179 390 -178 321 -216 401 -215 455 1 96 104 240 325 455 190 184 273
235 385 235 64 0 110 -19 289 -120 450 -253 501 -280 530 -280 52 0 133 45
151 83 33 69 -15 120 -229 242 l-119 68 64 63 c34 35 203 196 373 358 233 221
316 295 335 295 14 1 54 -4 89 -9z m-94 -1602 c268 -41 532 -210 680 -433 180
-273 192 -634 30 -960 -140 -283 -369 -476 -655 -552 -105 -28 -317 -23 -445
11 -288 75 -547 285 -666 540 -110 235 -116 607 -15 858 79 195 265 379 473
467 193 82 377 104 598 69z"/>
<path d="M4048 5843 c-149 -147 -218 -224 -218 -245 0 -11 93 -112 190 -204
l79 -76 65 51 c64 51 234 224 302 306 31 39 34 46 23 67 -28 54 -243 258 -271
258 -5 0 -82 -71 -170 -157z"/>
<path d="M3833 4330 c-129 -24 -240 -87 -356 -204 -96 -97 -151 -180 -180
-270 -19 -62 -22 -93 -22 -242 l0 -171 54 -109 c48 -97 65 -120 150 -204 109
-108 173 -149 298 -193 79 -27 100 -31 203 -31 208 0 341 55 485 199 99 98
148 181 181 305 25 94 22 271 -5 375 -71 267 -262 482 -474 530 -87 20 -262
28 -334 15z"/>
</g>
</svg>
